<svg width="200" height="48" viewBox="0 0 200 48" fill="none" xmlns="http://www.w3.org/2000/svg">
<path d="M63.2227 0.442261H67.5038V35.8906C67.5089 36.4092 67.4097 36.9235 67.2123 37.4028C67.0148 37.8821 66.7231 38.3165 66.3546 38.68C66.0027 39.0572 65.5766 39.3568 65.1031 39.5598C64.6297 39.7628 64.1194 39.8648 63.6046 39.8592H59.7017V37.604C57.3301 39.0406 54.6146 39.8047 51.8445 39.815C49.7844 39.8453 47.7399 39.4515 45.8373 38.6581C43.9346 37.8646 42.2142 36.6882 40.7821 35.2015C39.3231 33.7428 38.1659 32.009 37.377 30.0998C36.5881 28.1907 36.1831 26.1438 36.1853 24.0769C36.1863 22.0144 36.5921 19.9723 37.3797 18.0672C38.1673 16.1621 39.3211 14.4315 40.7753 12.9741C42.2295 11.5167 43.9555 10.3611 45.8548 9.57337C47.7541 8.78564 49.7895 8.38119 51.8445 8.38313C54.6065 8.38802 57.3177 9.12805 59.7017 10.5277V3.97972C59.7017 3.04217 60.0725 2.14296 60.7328 1.47966C61.393 0.816364 62.2886 0.443237 63.2227 0.442261V0.442261ZM59.7017 24.3128V23.83C59.6757 22.4736 59.2877 21.1489 58.5782 19.9941C57.8823 18.8487 56.9083 17.8991 55.7474 17.2342C54.5505 16.5606 53.2005 16.2091 51.8283 16.2136C50.4561 16.2181 49.1084 16.5786 47.916 17.2599C46.73 17.9508 45.7442 18.9402 45.0558 20.1305C44.1824 21.6305 43.8293 23.3789 44.0519 25.1019C44.2744 26.8249 45.0601 28.4252 46.2858 29.6521C47.7393 31.1309 49.7185 31.9698 51.7882 31.9843C53.8579 31.9988 55.8486 31.1878 57.3225 29.7295C58.055 29.0284 58.6423 28.1889 59.0506 27.2593C59.4588 26.3298 59.6801 25.3284 59.7017 24.3128V24.3128Z" fill="#FCF0E3"/>
<path d="M75.4013 12.9966C78.3422 10.0474 82.3279 8.38831 86.4852 8.38278C90.6426 8.37726 94.6326 10.0257 97.5813 12.9671C99.0689 14.4016 100.247 16.1277 101.042 18.0382C101.837 19.9487 102.233 22.0029 102.204 24.0732C102.235 26.1449 101.844 28.201 101.053 30.1149C100.263 32.0288 99.0897 33.7599 97.607 35.2015C96.151 36.6638 94.4222 37.8239 92.5193 38.6154C90.6164 39.4069 88.5768 39.8142 86.517 39.8142C84.4572 39.8142 82.4175 39.4069 80.5147 38.6154C78.6118 37.8239 76.883 36.6638 75.427 35.2015C73.9435 33.7605 72.7702 32.0295 71.9796 30.1154C71.189 28.2014 70.7978 26.145 70.8302 24.0732C70.7914 22.0106 71.1774 19.9621 71.964 18.0561C72.7506 16.1501 73.9208 14.4277 75.4013 12.9966V12.9966ZM80.9564 29.6779C81.6817 30.4109 82.5446 30.9921 83.4953 31.388C84.446 31.7838 85.4656 31.9864 86.4948 31.984C87.5241 31.9816 88.5426 31.7743 89.4915 31.374C90.4403 30.9737 91.3006 30.3884 92.0225 29.6521C92.7621 28.9269 93.3473 28.0585 93.7423 27.0995C94.1374 26.1405 94.3343 25.1109 94.3209 24.0732C94.2766 22.0186 93.4322 20.0632 91.9687 18.6258C90.5052 17.1885 88.5389 16.3836 86.4913 16.3836C84.4436 16.3836 82.4774 17.1885 81.0139 18.6258C79.5504 20.0632 78.706 22.0186 78.6617 24.0732C78.6507 25.1154 78.8496 26.149 79.2465 27.1121C79.6433 28.0752 80.2299 28.9479 80.9711 29.6779H80.9564Z" fill="#FCF0E3"/>
<path d="M136.772 20.8822C137.272 23.2502 137.208 25.7035 136.584 28.0418C136.017 30.2725 134.968 32.3506 133.511 34.1292C132.054 35.872 130.241 37.2806 128.195 38.2599C125.899 39.3813 123.36 39.9097 120.809 39.7971C118.258 39.6845 115.775 38.9345 113.586 37.6151V43.7835C113.592 44.3023 113.493 44.8168 113.295 45.2962C113.098 45.7756 112.806 46.2099 112.436 46.573C112.077 46.9553 111.641 47.2579 111.158 47.4616C110.675 47.6653 110.155 47.7655 109.631 47.7558H105.773V8.32785H113.586V10.5388C115.465 9.38604 117.575 8.66356 119.764 8.4228C121.954 8.18204 124.169 8.42894 126.253 9.14589C128.898 9.98521 131.271 11.5226 133.122 13.5972C134.989 15.638 136.253 18.1607 136.772 20.8822V20.8822ZM115.873 29.6779C116.976 30.7763 118.379 31.5224 119.903 31.8223C121.428 32.1222 123.008 31.9624 124.442 31.3631C125.877 30.7637 127.102 29.7517 127.965 28.4545C128.827 27.1572 129.288 25.6328 129.289 24.0732C129.289 21.9819 128.461 19.9761 126.988 18.4973C125.514 17.0185 123.516 16.1877 121.432 16.1877C119.348 16.1877 117.349 17.0185 115.876 18.4973C114.402 19.9761 113.575 21.9819 113.575 24.0732C113.562 25.1146 113.759 26.1478 114.154 27.1108C114.549 28.0739 115.134 28.947 115.873 29.6779V29.6779Z" fill="#FCF0E3"/>
<path d="M192.249 28.2298H200C200.017 30.3079 199.482 32.3532 198.45 34.155C197.437 35.9409 195.958 37.4161 194.173 38.4221C192.385 39.4498 190.359 39.9862 188.298 39.9771C186.971 39.9821 185.651 39.7641 184.395 39.3322C182.107 38.5242 180.126 37.021 178.727 35.0315C177.328 33.042 176.581 30.6647 176.59 28.2298V0.593339H180.438C181.134 0.589921 181.817 0.775839 182.416 1.13133C183.013 1.48213 183.51 1.98076 183.859 2.57948C184.213 3.18234 184.397 3.86995 184.392 4.5693V8.59685H200V16.3608H184.392V29.0331C184.589 30.0002 185.137 30.8593 185.93 31.4437C186.723 32.0282 187.704 32.2964 188.682 32.1964C189.661 32.0963 190.568 31.6351 191.227 30.9022C191.886 30.1693 192.25 29.217 192.249 28.2298Z" fill="#FCF0E3"/>
<path d="M23.5184 8.32785V10.5388C21.1346 9.13861 18.4233 8.39855 15.6613 8.39418C13.6044 8.36165 11.5626 8.7504 9.66055 9.53666C7.7585 10.3229 6.03617 11.4902 4.59882 12.9671C3.11457 14.4029 1.94053 16.1298 1.14972 18.0404C0.358911 19.9511 -0.0317554 22.0046 0.00201697 24.0732C-0.0304123 26.145 0.360777 28.2014 1.15142 30.1154C1.94206 32.0295 3.11535 33.7605 4.59882 35.2015C6.03061 36.6886 7.751 37.8652 9.65371 38.6587C11.5564 39.4522 13.601 39.8457 15.6613 39.815C18.5532 39.8139 21.3866 38.9967 23.8378 37.4566C24.1623 38.1369 24.6601 38.7191 25.2808 39.1443C25.9071 39.5864 26.6555 39.8209 27.4213 39.815H31.3425V8.32785H23.5184ZM18.4663 19.4082C18.6572 18.078 19.7147 17.1973 20.8271 17.4774C21.9396 17.7574 22.685 19.025 22.494 20.3515C22.3031 21.6781 21.2457 22.5625 20.1332 22.2824C19.0207 22.0024 18.2754 20.7348 18.4663 19.4082ZM13.9466 14.9237C14.9453 14.2457 16.3111 14.6953 16.9977 15.926C17.6843 17.1568 17.4346 18.7118 16.436 19.3898C15.4373 20.0678 14.0751 19.6219 13.3886 18.3875C12.702 17.1531 12.9516 15.6239 13.9466 14.9237ZM8.83948 17.1347C9.83815 16.4566 11.204 16.9025 11.8906 18.1369C12.5771 19.3714 12.3275 20.9227 11.3288 21.6007C10.3301 22.2787 8.96798 21.8329 8.2814 20.5984C7.59482 19.364 7.84448 17.8348 8.83948 17.1494V17.1347ZM10.209 26.5937C9.63988 27.5886 8.28874 27.7728 7.19095 27.0064C6.09315 26.2399 5.66724 24.7955 6.23634 23.819C6.80543 22.8425 8.15657 22.6398 9.25437 23.4063C10.3522 24.1727 10.7817 25.6135 10.209 26.6084V26.5937ZM22.4647 29.1731C21.0842 30.2343 19.0575 29.011 17.3832 29.7258C15.687 30.378 15.0701 32.6737 13.3445 32.869C11.6189 33.0643 10.2971 31.1813 11.8759 27.7544C12.9039 25.4477 12.6175 23.4726 14.5157 22.6472C16.4506 21.9102 17.6145 23.5426 19.9974 24.4896C23.4964 25.853 23.8452 28.1303 22.4647 29.1878V29.1731Z" fill="#FCF0E3"/>
<path d="M163.335 28.4656C162.538 29.8348 161.332 30.9177 159.888 31.5609C158.448 32.2252 156.838 32.4247 155.28 32.132C153.759 31.8669 152.347 31.1641 151.215 30.109L171.802 20.8564L171.56 19.7878C171.532 19.5892 171.484 19.394 171.416 19.2055C171.292 18.756 171.135 18.3163 170.946 17.8901C170.313 16.4389 169.444 15.103 168.376 13.9362C166.225 11.3922 163.289 9.64049 160.035 8.95796C156.756 8.20582 153.321 8.56206 150.265 9.97129C148.224 10.8789 146.401 12.2148 144.919 13.889C143.436 15.5633 142.328 17.537 141.669 19.6772C141.03 21.7867 140.835 24.0065 141.097 26.1957C141.407 28.7961 142.372 31.2741 143.902 33.3959C145.306 35.4038 147.161 37.0518 149.317 38.2063C151.474 39.3609 153.871 39.9896 156.314 40.0416C158.758 40.0937 161.179 39.5675 163.383 38.5058C165.586 37.4441 167.509 35.8766 168.997 33.9302C170.232 32.2989 171.141 30.4433 171.673 28.4656H163.335ZM150.441 19.3087C151.215 18.3122 152.224 17.5256 153.378 17.0204C154.527 16.4935 155.788 16.2581 157.05 16.335C158.29 16.4124 159.496 16.7675 160.582 17.3742L148.877 22.6251C149.147 21.4169 149.681 20.2841 150.441 19.3087V19.3087Z" fill="#FCF0E3"/>
</svg>
