<svg width="85" height="381" viewBox="0 0 85 381" fill="none" xmlns="http://www.w3.org/2000/svg">
<path d="M56.5 154.5C63.7 94.1 22.5 37 0.999992 16V397.5C73.8 376.3 83.6907 324.784 64 295.5C32.8 249.1 49.3 214.9 56.5 154.5Z" fill="#36D6AD"/>
<path d="M0.999992 1C30.1667 29.5 85.3 100.1 72.5 154.5C59.7 208.9 45.3 242.1 72.5 286.5C95.7793 324.5 87.8 392.8 0.999992 416M0.999992 16C22.5 37 63.7 94.1 56.5 154.5C49.3 214.9 32.8 249.1 64 295.5C83.6907 324.784 73.8 376.3 0.999992 397.5V16Z" stroke="#36D6AD" stroke-width="2"/>
</svg>
