<svg width="163" height="38" viewBox="0 0 163 38" fill="none" xmlns="http://www.w3.org/2000/svg">
<path d="M54.1961 1.81972H57.3744V27.5634C57.3781 27.94 57.3045 28.3135 57.158 28.6616C57.0114 29.0096 56.7948 29.3251 56.5212 29.5892C56.26 29.8631 55.9436 30.0807 55.5921 30.2281C55.2407 30.3755 54.8618 30.4496 54.4796 30.4455H51.5821V28.8077C49.8215 29.8511 47.8055 30.406 45.749 30.4134C44.2196 30.4354 42.7018 30.1495 41.2893 29.5732C39.8767 28.997 38.5995 28.1426 37.5363 27.063C36.4532 26.0036 35.5941 24.7445 35.0084 23.358C34.4227 21.9715 34.1221 20.4849 34.1237 18.9839C34.1244 17.4861 34.4257 16.003 35.0104 14.6195C35.5951 13.236 36.4517 11.9791 37.5313 10.9207C38.6108 9.8623 39.8923 9.02308 41.3023 8.45101C42.7123 7.87894 44.2233 7.58521 45.749 7.58662C47.7995 7.59018 49.8123 8.1276 51.5821 9.14408V4.38873C51.5821 3.70785 51.8575 3.05482 52.3476 2.57311C52.8377 2.0914 53.5026 1.82043 54.1961 1.81972ZM51.5821 19.1552V18.8046C51.5628 17.8195 51.2748 16.8575 50.7481 16.0189C50.2314 15.1871 49.5084 14.4974 48.6465 14.0145C47.7579 13.5254 46.7557 13.2701 45.737 13.2733C44.7183 13.2766 43.7177 13.5384 42.8325 14.0332C41.9521 14.535 41.2202 15.2535 40.7091 16.1179C40.0607 17.2073 39.7985 18.477 39.9638 19.7283C40.129 20.9796 40.7123 22.1418 41.6222 23.0328C42.7013 24.1067 44.1707 24.716 45.7072 24.7265C47.2437 24.737 48.7216 24.148 49.8158 23.089C50.3596 22.5798 50.7956 21.9702 51.0987 21.2951C51.4018 20.62 51.5661 19.8928 51.5821 19.1552Z" fill="#3772FF"/>
<path d="M63.2375 10.937C65.4207 8.79526 68.3797 7.59039 71.4661 7.58637C74.5525 7.58236 77.5147 8.77954 79.7037 10.9156C80.8082 11.9574 81.6827 13.211 82.273 14.5984C82.8634 15.9859 83.1569 17.4777 83.1355 18.9813C83.1589 20.4857 82.8682 21.979 82.2812 23.3689C81.6943 24.7589 80.8236 26.0161 79.7228 27.063C78.6419 28.125 77.3584 28.9674 75.9458 29.5422C74.5331 30.117 73.0189 30.4129 71.4897 30.4129C69.9605 30.4129 68.4463 30.117 67.0336 29.5422C65.6209 28.9674 64.3374 28.125 63.2565 27.063C62.1552 26.0164 61.2842 24.7593 60.6972 23.3693C60.1102 21.9793 59.8198 20.4858 59.8439 18.9813C59.8151 17.4833 60.1017 15.9957 60.6856 14.6115C61.2696 13.2273 62.1383 11.9764 63.2375 10.937ZM67.3615 23.0515C67.9 23.5838 68.5406 24.006 69.2464 24.2934C69.9522 24.5809 70.7091 24.7281 71.4732 24.7263C72.2373 24.7246 72.9935 24.574 73.6979 24.2833C74.4024 23.9926 75.041 23.5676 75.5769 23.0328C76.126 22.5062 76.5604 21.8755 76.8537 21.179C77.1471 20.4826 77.2932 19.7348 77.2833 18.9813C77.2503 17.4892 76.6235 16.069 75.537 15.0252C74.4505 13.9814 72.9908 13.3968 71.4706 13.3968C69.9504 13.3968 68.4907 13.9814 67.4042 15.0252C66.3177 16.069 65.6908 17.4892 65.6579 18.9813C65.6498 19.7381 65.7975 20.4888 66.0921 21.1882C66.3867 21.8876 66.8222 22.5214 67.3724 23.0515H67.3615Z" fill="#3772FF"/>
<path d="M108.798 16.6638C109.17 18.3835 109.123 20.1652 108.659 21.8634C108.238 23.4833 107.459 24.9925 106.378 26.2842C105.296 27.5499 103.95 28.5729 102.431 29.2841C100.726 30.0985 98.8416 30.4822 96.9477 30.4004C95.0537 30.3186 93.2105 29.7739 91.5853 28.8158V33.2955C91.5897 33.6722 91.5164 34.0459 91.3697 34.3941C91.2231 34.7422 91.0062 35.0576 90.7321 35.3213C90.465 35.5989 90.1418 35.8187 89.7832 35.9666C89.4246 36.1145 89.0385 36.1873 88.6496 36.1803H85.7849V7.54648H91.5853V9.15211C92.9805 8.31497 94.5467 7.79028 96.1722 7.61543C97.7976 7.44059 99.4423 7.61989 100.989 8.14056C102.953 8.7501 104.715 9.86658 106.089 11.3732C107.475 12.8553 108.414 14.6874 108.798 16.6638ZM93.2834 23.0515C94.1024 23.8492 95.1435 24.3911 96.2756 24.6089C97.4077 24.8266 98.5801 24.7106 99.6451 24.2754C100.71 23.8401 101.62 23.1051 102.26 22.163C102.901 21.2209 103.243 20.1139 103.243 18.9813C103.243 17.4624 102.629 16.0058 101.535 14.9318C100.441 13.8579 98.9572 13.2545 97.4102 13.2545C95.8632 13.2545 94.3795 13.8579 93.2856 14.9318C92.1917 16.0058 91.5771 17.4624 91.5771 18.9813C91.5679 19.7375 91.7143 20.4878 92.0075 21.1872C92.3007 21.8866 92.7347 22.5207 93.2834 23.0515Z" fill="#3772FF"/>
<path d="M149.984 21.9999H155.739C155.751 23.5091 155.354 24.9944 154.588 26.303C153.836 27.5999 152.738 28.6712 151.413 29.4018C150.085 30.1482 148.581 30.5377 147.052 30.5311C146.066 30.5348 145.087 30.3765 144.154 30.0628C142.455 29.476 140.984 28.3843 139.946 26.9395C138.907 25.4946 138.353 23.7682 138.359 21.9999V1.92943H141.216C141.732 1.92695 142.24 2.06197 142.685 2.32014C143.128 2.5749 143.497 2.93702 143.756 3.37183C144.018 3.80964 144.155 4.30901 144.151 4.8169V7.74183H155.739V13.3803H144.151V22.5832C144.298 23.2856 144.705 23.9095 145.293 24.3339C145.882 24.7584 146.61 24.9532 147.337 24.8805C148.063 24.8079 148.736 24.4729 149.225 23.9407C149.715 23.4084 149.985 22.7168 149.984 21.9999Z" fill="#3772FF"/>
<path d="M24.7199 7.54648V9.15211C22.9502 8.13527 20.9373 7.59782 18.8868 7.59465C17.3598 7.57103 15.8439 7.85335 14.4319 8.42435C13.0198 8.99536 11.7411 9.84305 10.6741 10.9156C9.57216 11.9583 8.70056 13.2125 8.11346 14.6001C7.52637 15.9876 7.23634 17.4789 7.26142 18.9813C7.23734 20.4858 7.52776 21.9793 8.11472 23.3693C8.70169 24.7593 9.57274 26.0164 10.6741 27.063C11.737 28.1429 13.0142 28.9974 14.4268 29.5737C15.8393 30.1499 17.3573 30.4357 18.8868 30.4134C21.0337 30.4126 23.1372 29.8191 24.957 28.7007C25.1979 29.1947 25.5674 29.6175 26.0282 29.9263C26.4932 30.2474 27.0489 30.4177 27.6173 30.4134H30.5284V7.54648H24.7199ZM20.9692 15.5934C21.111 14.6273 21.896 13.9877 22.7219 14.1911C23.5478 14.3945 24.1011 15.3151 23.9594 16.2785C23.8176 17.2418 23.0326 17.8841 22.2067 17.6807C21.3808 17.4773 20.8275 16.5568 20.9692 15.5934ZM17.6138 12.3366C18.3552 11.8442 19.3692 12.1707 19.8789 13.0645C20.3886 13.9583 20.2033 15.0876 19.4619 15.58C18.7205 16.0724 17.7092 15.7486 17.1995 14.8521C16.6898 13.9556 16.8751 12.8451 17.6138 12.3366ZM13.8223 13.9423C14.5637 13.4499 15.5777 13.7737 16.0874 14.6701C16.5971 15.5666 16.4118 16.6932 15.6704 17.1856C14.929 17.678 13.9177 17.3542 13.408 16.4577C12.8983 15.5613 13.0836 14.4507 13.8223 13.953V13.9423ZM14.839 20.8117C14.4165 21.5342 13.4134 21.668 12.5984 21.1114C11.7834 20.5548 11.4673 19.5058 11.8897 18.7966C12.3122 18.0875 13.3153 17.9403 14.1303 18.4969C14.9453 19.0535 15.2642 20.0999 14.839 20.8224V20.8117ZM23.9376 22.6849C22.9127 23.4556 21.4081 22.5672 20.1651 23.0863C18.9058 23.56 18.4479 25.2272 17.1668 25.369C15.8857 25.5108 14.9044 24.1434 16.0765 21.6546C16.8397 19.9794 16.6271 18.5451 18.0363 17.9456C19.4728 17.4104 20.3369 18.5959 22.1059 19.2837C24.7035 20.2738 24.9625 21.9276 23.9376 22.6956V22.6849Z" fill="#3772FF"/>
<path d="M128.519 22.1711C127.927 23.1655 127.032 23.9519 125.96 24.419C124.891 24.9014 123.695 25.0464 122.539 24.8338C121.409 24.6412 120.361 24.1308 119.522 23.3646L134.805 16.6451L134.625 15.869C134.605 15.7248 134.569 15.5831 134.519 15.4462C134.426 15.1197 134.31 14.8004 134.17 14.4908C133.699 13.437 133.055 12.4668 132.262 11.6194C130.664 9.7719 128.485 8.49975 126.069 8.00408C123.634 7.45785 121.085 7.71656 118.816 8.73999C117.301 9.3991 115.947 10.3693 114.847 11.5852C113.746 12.8011 112.923 14.2344 112.435 15.7887C111.96 17.3207 111.815 18.9328 112.009 20.5227C112.24 22.4111 112.956 24.2108 114.092 25.7517C115.134 27.2099 116.511 28.4067 118.112 29.2451C119.713 30.0836 121.493 30.5402 123.307 30.578C125.121 30.6158 126.919 30.2337 128.554 29.4626C130.19 28.6916 131.618 27.5532 132.722 26.1397C133.639 24.955 134.314 23.6074 134.709 22.1711H128.519ZM118.946 15.5211C119.521 14.7974 120.27 14.2262 121.127 13.8593C121.98 13.4766 122.916 13.3057 123.853 13.3615C124.773 13.4177 125.669 13.6756 126.475 14.1162L117.785 17.9296C117.986 17.0522 118.382 16.2295 118.946 15.5211Z" fill="#3772FF"/>
</svg>
