<svg width="77" height="90" viewBox="0 0 77 90" fill="none" xmlns="http://www.w3.org/2000/svg">
<g clip-path="url(#clip0_26_243)">
<path d="M7.43194 59.9161C7.43194 59.9161 1.67594 63.7642 2.22401 65.0127C2.90197 66.5598 9.54524 63.6353 9.54524 63.6353L7.43194 59.9161Z" fill="#2D2B2C"/>
<path d="M18.9803 75.8632C18.9803 75.8632 15.3233 81.7417 16.3375 82.6537C17.5929 83.7826 22.4395 78.3777 22.4395 78.3777L18.9803 75.8632Z" fill="#2D2B2C"/>
<path d="M63.0114 68.0659C63.0114 68.0659 67.459 73.3726 66.5841 74.4169C65.5012 75.7035 59.9422 71.0439 59.9422 71.0439L63.0114 68.0659Z" fill="#2D2B2C"/>
<path d="M47.4591 80.1402C47.4591 80.1402 49.3222 86.807 48.0943 87.3883C46.5632 88.1204 43.4348 81.5678 43.4348 81.5678L47.4591 80.1402Z" fill="#2D2B2C"/>
<path d="M5.96373 58.9448C7.32362 70.0115 17.7478 67.1737 17.7478 67.1737C17.7478 67.1737 13.6911 76.9378 21.1009 79.6747C27.0576 81.8738 32.1367 78.2784 33.1706 77.0371C33.7126 78.4101 38.363 83.8462 44.8234 82.6519C52.738 81.1897 50.8391 72.1705 50.8391 72.1705C50.8391 72.1705 60.006 77.882 64.4833 67.6679C68.0761 59.4744 55.6633 56.4038 55.7432 52.4877C55.8231 48.5715 68.6552 -0.679417 68.6552 -0.679417L21.5847 -7.72584C21.5847 -7.72584 19.7465 43.1386 18.701 46.9121C17.6555 50.6856 4.87354 50.0632 5.96373 58.9448Z" fill="#FDBF12"/>
<path d="M34.7597 64.7489C41.6819 65.882 48.923 61.6431 45.8772 57.4026C42.8313 53.1621 40.8785 51.189 36.833 50.5276C33.0067 49.9011 30.6558 52.1057 27.0188 53.7555C23.3818 55.4054 26.927 63.4628 34.7597 64.7489Z" fill="#2D2B2C"/>
<path d="M55.8234 68.1487C57.4943 69.6093 59.2166 69.6247 60.1953 68.4207C61.3995 66.9391 60.2748 65.1724 58.6116 63.8937C56.9485 62.615 55.137 62.5035 54.3229 63.5362C53.5087 64.569 54.1523 66.6898 55.8234 68.1487Z" fill="#2D2B2C"/>
<path d="M40.775 71.617C39.6179 72.2311 39.3328 74.4274 40.2629 76.4418C41.1931 78.4563 42.7602 79.1723 44.1437 78.4723C45.8462 77.6112 45.5332 75.5348 44.5442 73.6915C43.5552 71.8482 41.9389 71.0056 40.775 71.617Z" fill="#2D2B2C"/>
<path d="M10.8053 60.795C11.4916 62.1874 13.1747 62.5467 15.1273 61.5043C17.0798 60.462 18.1797 58.5312 17.6165 57.3416C17.0534 56.1519 15.2543 55.8558 13.3561 56.7336C11.458 57.6114 9.96188 59.0805 10.8053 60.795Z" fill="#2D2B2C"/>
<path d="M23.4317 75.3993C24.6249 76.3909 26.3124 76.0398 27.6665 74.2829C29.0205 72.5261 29.2403 70.3228 28.2419 69.4666C27.2434 68.6105 25.478 69.0746 24.1037 70.6497C22.7294 72.2248 21.963 74.179 23.4317 75.3993Z" fill="#2D2B2C"/>
<path d="M48.9338 29.01C43.7079 29.7601 43.9567 37.9356 45.8209 41.2577C47.5523 44.356 52.8721 46.6842 56.9719 46.1048C57.9963 41.5442 59.5736 35.0596 61.2445 28.3585C59.5128 29.2498 57.7391 30.2141 55.8833 30.4458C53.3871 30.7649 51.2108 28.6829 48.9338 29.01Z" fill="#2D2B2C"/>
<path d="M20.0356 28.5641C25.0386 29.1092 29.227 28.6169 33.858 25.5431C38.6601 22.3562 43.2545 19.2882 48.4889 16.84C52.3618 15.0339 54.2353 13.1698 54.9196 8.98053C55.4657 5.61785 55.9051 1.25237 55.2618 -2.6788L21.582 -7.71904C21.582 -7.71904 20.8422 12.6466 20.0356 28.5641Z" fill="#2D2B2C"/>
<g opacity="0.33">
<path opacity="0.33" d="M39.8 63.3561C43.3007 62.465 45.046 60.3025 44.1282 59.0471C43.2104 57.7918 40.9947 60.8275 38.7975 60.9613C36.7338 61.088 33.4793 60.7624 33.102 61.7018C32.4733 63.2716 36.0196 64.3152 39.8 63.3561Z" fill="#DEB180"/>
<path opacity="0.33" d="M59.7865 67.5741C60.4487 67.0187 59.7345 65.9932 59.209 65.3476C58.7708 64.8122 58.0655 64.1066 57.5356 64.4775C57.0058 64.8484 57.6411 65.6879 57.9463 66.2805C58.2514 66.8731 59.247 68.0297 59.7865 67.5741Z" fill="#DEB180"/>
<path opacity="0.33" d="M43.7438 77.8383C44.5913 77.6749 44.4705 76.432 44.3191 75.6148C44.196 74.9339 43.9243 73.9733 43.2775 74.042C42.6308 74.1107 42.7827 75.15 42.7607 75.8185C42.7387 76.4871 43.0487 77.9739 43.7438 77.8383Z" fill="#DEB180"/>
<path opacity="0.33" d="M24.3536 75.1224C24.9526 75.7402 25.9275 74.9763 26.535 74.4009C27.0388 73.9316 27.6988 73.1789 27.2925 72.6729C26.8861 72.1669 26.0928 72.8587 25.52 73.2024C24.9473 73.546 23.8634 74.614 24.3536 75.1224Z" fill="#DEB180"/>
<path opacity="0.33" d="M11.7523 60.996C12.1395 61.7644 13.3027 61.3177 14.0497 60.9563C14.674 60.6554 15.5264 60.1364 15.2889 59.5331C15.0514 58.9299 14.0883 59.3535 13.4406 59.5098C12.7928 59.666 11.4395 60.354 11.7523 60.996Z" fill="#DEB180"/>
</g>
</g>
<defs>
<clipPath id="clip0_26_243">
<rect width="65.178" height="90.83" fill="white" transform="translate(64.5945 89.7185) rotate(-172.328)"/>
</clipPath>
</defs>
</svg>
