<svg width="74" height="96" viewBox="0 0 74 96" fill="none" xmlns="http://www.w3.org/2000/svg">
<g clip-path="url(#clip0_26_139)">
<path d="M29.5233 40.3023C26.6151 43.8326 21.5335 51.0577 23.4055 54.2656C25.2612 57.4368 28.0513 56.7927 28.0513 56.7927C28.0513 56.7927 23.6461 62.8214 26.2607 66.7363C29.4913 71.5762 34.119 69.1212 34.119 69.1212C34.119 69.1212 32.0202 73.9226 37.0852 76.7853C41.1845 79.1029 46.8748 74.2677 46.8748 74.2677C46.8748 74.2677 46.4355 77.1018 49.7414 78.713C53.0788 80.3416 59.9015 74.7426 63.2052 71.5811C66.8515 68.0907 108.961 23.8965 108.961 23.8965L72.7765 -9.69481C72.7765 -9.69481 32.7331 36.4073 29.5233 40.3023Z" fill="#DEB180"/>
<path d="M43.6154 57.7155C48.9531 62.6693 57.6499 63.159 57.4489 57.7423C57.2479 52.3255 52.2009 54.44 49.0827 51.544C46.1399 48.7996 47.3242 44.4202 43.234 43.7607C39.1439 43.1013 37.5689 52.1007 43.6154 57.7155Z" fill="#2D2B2C"/>
<path d="M51.2069 75.6691C52.7698 76.8865 54.5768 75.6593 55.8665 73.916C57.1561 72.1727 57.2267 70.2746 56.1336 69.4569C55.0405 68.6392 52.8619 69.3614 51.3829 71.1249C49.9039 72.8885 49.9365 74.6812 51.2069 75.6691Z" fill="#2D2B2C"/>
<path d="M43.1842 67.5631C42.0899 66.7442 39.9125 67.4676 38.4323 69.2324C36.9521 70.9973 36.9822 72.7901 38.2563 73.7766C39.8192 74.994 41.6262 73.7668 42.9171 72.0223C44.2079 70.2777 44.2773 68.3808 43.1842 67.5631Z" fill="#2D2B2C"/>
<path d="M34.4419 59.4463C33.3488 58.6286 31.169 59.352 29.6913 61.1168C28.2136 62.8815 28.2412 64.6744 29.5153 65.6609C31.0769 66.8771 32.8852 65.6512 34.1748 63.9079C35.4645 62.1646 35.5338 60.2652 34.4419 59.4463Z" fill="#2D2B2C"/>
<path d="M27.2664 48.7329C25.7913 50.5026 25.8163 52.2906 27.0904 53.2771C28.652 54.4933 30.4603 53.2673 31.7512 51.5228C33.0421 49.7782 33.1102 47.8801 32.0171 47.0624C30.924 46.2447 28.7389 46.9609 27.2664 48.7329Z" fill="#2D2B2C"/>
<g opacity="0.2">
<path opacity="0.2" d="M48.9981 58.9993C52.5369 60.2396 55.2758 59.3724 55.2159 57.7583C55.156 56.1442 51.485 57.4987 49.506 56.3542C47.6486 55.2775 45.0185 53.1297 44.156 53.7251C42.7111 54.721 45.1774 57.6596 48.9981 58.9993Z" fill="white"/>
<path opacity="0.2" d="M52.2023 74.5734C52.8273 75.2186 53.8315 74.4121 54.4642 73.816C54.9887 73.3231 55.6707 72.5402 55.2464 72.0197C54.8221 71.4991 54.0011 72.2173 53.4085 72.5746C52.816 72.932 51.6933 74.0458 52.2023 74.5734Z" fill="white"/>
<path opacity="0.2" d="M41.9833 70.4288C41.5589 69.9058 40.738 70.6264 40.1443 70.9851C39.5506 71.3437 38.4302 72.455 38.9393 72.9825C39.563 73.6291 40.5684 72.8212 41.2011 72.2252C41.728 71.7297 42.4089 70.9481 41.9833 70.4288Z" fill="white"/>
<path opacity="0.2" d="M30.2513 64.7147C30.875 65.3612 31.8805 64.5534 32.5132 63.9573C33.0364 63.4657 33.721 62.6827 33.2942 62.1623C32.8674 61.6418 32.0501 62.3586 31.4563 62.7172C30.8626 63.0759 29.741 64.1884 30.2513 64.7147Z" fill="white"/>
<path opacity="0.2" d="M27.6601 52.0485C28.2839 52.695 29.2893 51.8871 29.922 51.2911C30.4452 50.7995 31.1298 50.0165 30.7042 49.4948C30.2786 48.973 29.4589 49.6923 28.8651 50.051C28.2714 50.4097 27.1498 51.5222 27.6601 52.0485Z" fill="white"/>
</g>
<path d="M75.3645 -2.69073C73.7716 -4.18836 72.0819 -5.57965 70.3064 -6.85557C68.5233 -4.79937 65.8908 -1.76813 62.8058 1.78705C68.5593 6.94374 76.1866 11.9368 77.9198 12.9433C85.3143 17.2413 93.5562 20.0824 99.8942 25.9714C101.023 27.0239 102.272 28.2635 103.484 29.636C105.33 27.7006 106.806 26.1508 107.76 25.151C106.045 24.2308 104.317 23.28 102.623 22.1989C95.4941 17.6543 89.7774 10.7 83.5842 4.93877L75.3645 -2.69073Z" fill="#2D2B2C"/>
<path d="M53.9751 11.9719C55.2636 15.1928 58.3409 17.484 61.1184 19.8341C70.338 27.6734 80.9891 35.5942 88.8422 44.9683C91.0465 42.6638 93.2099 40.3981 95.2643 38.2467C93.0835 36.1241 91.3579 34.2291 90.7776 33.5823C82.5867 24.6039 73.0678 8.34388 60.0374 4.97961C58.0966 7.21772 56.0543 9.57241 53.9751 11.9719Z" fill="#2D2B2C"/>
<path d="M45.6592 21.5686C42.9077 24.7481 40.2768 27.788 37.9578 30.4729C39.6302 33.0857 41.5608 35.524 43.7205 37.751C49.1147 43.293 55.301 47.9625 61.5201 52.5066C65.5163 55.429 69.9063 57.7799 74.1819 60.2714C76.4058 57.9588 78.8285 55.4306 81.329 52.8213C72.5006 45.7286 64.8021 37.0486 56.1613 29.7444C54.9374 28.7014 50.329 24.7134 45.6592 21.5686Z" fill="#2D2B2C"/>
</g>
<defs>
<clipPath id="clip0_26_139">
<rect width="49.3713" height="87.9708" fill="white" transform="translate(48.9656 88.2248) rotate(-136.998)"/>
</clipPath>
</defs>
</svg>
