<svg width="113" height="164" viewBox="0 0 113 164" fill="none" xmlns="http://www.w3.org/2000/svg">
<g clip-path="url(#clip0_26_182)">
<path d="M55.4772 53.1471C55.4772 53.1471 50.3294 47.9857 49.1614 48.8058C47.7047 49.8223 52.0672 56.0886 52.0672 56.0886L55.4772 53.1471Z" fill="#7A796E"/>
<path d="M41.3854 68.3276C41.3854 68.3276 34.578 65.7494 33.8449 66.9826C32.9348 68.5101 39.4958 72.4124 39.4958 72.4124L41.3854 68.3276Z" fill="#7A796E"/>
<path d="M58.3963 112.218C58.3963 112.218 53.8311 117.888 52.5764 117.203C51.0191 116.346 54.7027 109.654 54.7027 109.654L58.3963 112.218Z" fill="#7A796E"/>
<path d="M42.7852 98.6148C42.7852 98.6148 36.289 101.9 35.4281 100.751C34.3626 99.3289 40.4734 94.7531 40.4734 94.7531L42.7852 98.6148Z" fill="#7A796E"/>
<path d="M56.1749 51.4324C45.0378 55.0937 50.0888 65.2767 50.0888 65.2767C50.0888 65.2767 39.1935 63.0782 37.8801 71.29C36.8251 77.8905 41.5676 82.4045 43.0595 83.2193C41.7535 84.0599 37.0948 89.9719 39.6418 96.3992C42.7645 104.277 51.678 100.476 51.678 100.476C51.678 100.476 47.6579 111.115 59.0994 113.652C68.2826 115.693 68.9212 102.244 72.9748 101.527C77.0285 100.81 130.444 104.021 130.444 104.021L128.119 53.9631C128.119 53.9631 75.2908 62.4366 71.1857 62.1242C67.0805 61.8117 65.1185 48.4947 56.1749 51.4324Z" fill="#FCF0E3"/>
<path d="M56.0666 82.3639C56.3085 89.7465 62.1565 96.3612 65.9084 92.3489C69.6602 88.3365 64.5426 86.2105 64.401 81.8913C64.2674 77.8122 68.2701 75.5422 65.8269 72.1212C63.3837 68.7001 55.7926 74.0029 56.0666 82.3639Z" fill="#1A1A1A"/>
<path d="M56.8467 104.811C55.6825 106.833 56.0165 108.615 57.4588 109.382C59.2304 110.323 60.8178 108.793 61.8041 106.823C62.7904 104.853 62.5307 102.949 61.3009 102.32C60.0712 101.69 58.0123 102.78 56.8467 104.811Z" fill="#1A1A1A"/>
<path d="M50.2047 89.9732C49.3354 88.8958 47.0132 89.0574 45.1254 90.4282C43.2375 91.799 42.817 93.5633 43.8211 94.85C45.0555 96.4337 47.1345 95.687 48.8312 94.2905C50.528 92.8939 51.0721 91.0507 50.2047 89.9732Z" fill="#1A1A1A"/>
<path d="M55.2594 56.8103C53.9637 57.802 53.9289 59.616 55.4104 61.4195C56.892 63.223 59.0982 63.9699 60.209 63.1411C61.3199 62.3122 61.2589 60.398 59.9683 58.6167C58.6777 56.8354 56.8535 55.5898 55.2594 56.8103Z" fill="#1A1A1A"/>
<path d="M42.7722 72.8268C41.9943 74.2627 42.6962 75.9333 44.7876 76.9742C46.8789 78.0152 49.192 77.7915 49.8708 76.585C50.5497 75.3785 49.7107 73.6501 47.8078 72.5567C45.905 71.4633 43.7315 71.0644 42.7722 72.8268Z" fill="#1A1A1A"/>
<path d="M76.145 97.778C77.5188 97.8131 78.8943 97.8446 80.2671 97.9012C81.3212 97.9467 82.5295 97.9232 83.5366 98.2143C84.0912 98.3742 84.7185 97.9832 84.8484 97.5516C85.0095 97.0406 84.6107 96.6458 84.056 96.4859C82.9325 96.1665 81.5766 96.1914 80.3977 96.1374C78.9624 96.0705 77.523 96.0411 76.0868 96.0044C74.6881 95.9701 74.7551 97.7434 76.1451 97.7834L76.145 97.778Z" fill="#2D2B2C"/>
<path d="M81.9484 93.9193C83.2687 93.73 84.5889 93.539 85.9156 93.3833C86.9074 93.2653 88.395 93.0812 89.1574 93.1773C90.5287 93.3532 91.0624 91.6243 89.6769 91.4489C88.4858 91.2956 87.2464 91.4537 86.0594 91.587C84.6633 91.7414 83.2778 91.9471 81.8903 92.1457C81.3063 92.2289 80.8185 92.537 80.836 93.0707C80.8503 93.5065 81.3627 94.0062 81.9486 93.9246L81.9484 93.9193Z" fill="#2D2B2C"/>
<path d="M78.2809 87.9722C79.1458 87.7782 79.9851 87.5067 80.8267 87.2547C81.2722 87.1208 81.7213 86.9886 82.1707 86.8652C82.3468 86.8132 82.539 86.7659 82.726 86.7223C82.8019 86.7038 82.8796 86.687 82.9556 86.6721C83.277 86.6046 82.7655 86.6783 83.0124 86.6702C84.4033 86.5765 84.3505 84.8028 82.9541 84.8913C82.1291 84.9468 81.3187 85.2298 80.5474 85.4581C79.5876 85.7424 78.6341 86.0551 77.6494 86.2815C76.2955 86.584 76.9288 88.2747 78.2809 87.9722Z" fill="#2D2B2C"/>
<path d="M75.9314 78.0212C78.9258 78.0246 81.892 77.5997 84.8809 77.4911C86.2788 77.4453 86.2205 75.6663 84.8226 75.7122C81.8337 75.8208 78.8675 76.2457 75.8731 76.2423C74.4736 76.2401 74.5371 78.0135 75.9314 78.0212Z" fill="#2D2B2C"/>
<path d="M88.3397 81.52C90.4069 81.3329 92.5155 81.3831 94.5437 80.9302C95.8957 80.6241 95.2624 78.9335 93.9104 79.2378C92.0855 79.6538 90.1519 79.5764 88.2852 79.7463C86.9024 79.8717 86.9516 81.6456 88.3435 81.5252L88.3397 81.52Z" fill="#2D2B2C"/>
<path d="M90.7747 72.9153C92.0688 72.4188 93.5751 72.2643 94.9812 72.3073C96.3873 72.3502 96.3097 70.5773 94.9229 70.5283C93.1176 70.4712 91.3188 70.7722 89.6301 71.4141C89.516 71.4598 89.4138 71.5311 89.3315 71.6225C89.2492 71.7139 89.189 71.8231 89.1554 71.9415C89.1219 72.0599 89.1159 72.1845 89.138 72.3056C89.16 72.4267 89.2096 72.5411 89.2827 72.6401C89.6227 73.0848 90.2371 73.1163 90.7744 72.9082L90.7747 72.9153Z" fill="#2D2B2C"/>
<path d="M76.2635 70.5219C78.102 70.1945 79.6635 69.0641 81.5644 68.9609C82.9577 68.8831 82.9031 67.1094 81.5061 67.1819C79.3549 67.2987 77.6877 68.4575 75.63 68.8259C74.2618 69.0702 74.9022 70.7606 76.2633 70.5165L76.2635 70.5219Z" fill="#2D2B2C"/>
<path d="M93.1526 65.121C95.7313 64.4292 98.4436 64.2352 101.062 63.6775C102.42 63.3908 101.783 61.6949 100.429 61.9868C97.8119 62.5392 95.098 62.7385 92.521 63.4285C91.1903 63.7855 91.8165 65.4782 93.1526 65.121Z" fill="#2D2B2C"/>
<path d="M104.545 72.822C106.612 72.6296 108.667 72.3432 110.75 72.2625C112.146 72.2167 112.089 70.4377 110.691 70.4835C108.612 70.5624 106.557 70.8487 104.486 71.043C103.104 71.1721 103.151 72.946 104.545 72.822Z" fill="#2D2B2C"/>
<path d="M92.7544 88.2387C94.5877 88.2944 96.4174 88.3502 98.2524 88.2954C99.6502 88.2496 99.5923 86.4813 98.1941 86.5164C96.3593 86.5766 94.5294 86.5154 92.6961 86.4598C91.299 86.4183 91.3678 88.1915 92.7544 88.2387Z" fill="#2D2B2C"/>
<path d="M90.3463 98.5824C92.2605 98.7761 94.1027 99.2678 96.0171 99.4651C97.3888 99.5982 97.9209 97.8765 96.5365 97.7367C94.6223 97.543 92.7801 97.0513 90.8675 96.854C89.494 96.7209 88.9637 98.4425 90.3463 98.5824Z" fill="#2D2B2C"/>
<path d="M99.1848 94.6634C101.401 94.4697 103.617 94.2795 105.816 93.9724C106.4 93.8909 106.888 93.5811 106.87 93.0474C106.856 92.6116 106.343 92.1137 105.757 92.1935C103.559 92.5006 101.343 92.6943 99.1265 92.8845C97.7417 93.0046 97.791 94.7803 99.1848 94.6634Z" fill="#2D2B2C"/>
<path d="M111.723 97.6771C114.35 97.4877 116.975 97.6652 119.507 96.9162C120.823 96.5294 120.2 94.8349 118.876 95.2255C116.534 95.9167 114.092 95.7278 111.665 95.9035C110.276 96.0042 110.327 97.778 111.723 97.6824L111.723 97.6771Z" fill="#2D2B2C"/>
<path d="M107.676 88.9339C109.961 88.8377 112.161 88.3097 114.286 87.6203C115.581 87.1986 114.962 85.5039 113.653 85.9297C111.707 86.5615 109.713 87.0721 107.618 87.1603C106.222 87.2185 106.278 88.9851 107.676 88.9393L107.676 88.9339Z" fill="#2D2B2C"/>
<path d="M100.662 82.3859C102.805 81.9777 104.968 81.6803 107.142 81.495C108.527 81.3713 108.478 79.5974 107.084 79.7161C104.718 79.9193 102.363 80.2443 100.03 80.6899C98.6662 80.9554 99.3047 82.6441 100.662 82.3806L100.662 82.3859Z" fill="#2D2B2C"/>
<path d="M110.754 76.9655C112.659 76.3599 115.176 76.2507 117.113 76.7571C118.442 77.1071 118.949 75.3738 117.634 75.0286C115.378 74.4365 112.344 74.568 110.123 75.2748C108.823 75.6896 109.442 77.3843 110.754 76.9655Z" fill="#2D2B2C"/>
<path d="M113.949 67.2888C114.051 67.207 113.745 67.3969 114.007 67.269C114.111 67.2247 114.102 67.225 113.982 67.2698C114.074 67.2348 114.169 67.205 114.262 67.177C114.613 67.0721 114.97 66.9866 115.331 66.9211C116.217 66.7557 117.111 66.6354 118.009 66.5609C118.956 66.4711 119.911 66.4184 120.864 66.405C121.59 66.3955 121.959 66.3691 122.56 66.5275C123.886 66.883 124.391 65.1497 123.08 64.7973C122.371 64.6086 121.545 64.6304 120.806 64.635C119.739 64.6433 118.675 64.7191 117.611 64.8234C116.542 64.9206 115.479 65.0744 114.426 65.2839C113.698 65.4342 112.917 65.6414 112.368 66.0833C111.361 66.8927 112.939 68.093 113.94 67.2784L113.949 67.2888Z" fill="#2D2B2C"/>
<path d="M103.963 67.0194C104.704 66.297 105.916 65.9991 106.878 65.5242C108.082 64.9309 106.94 63.435 105.734 64.0283C104.594 64.6 103.275 64.9566 102.391 65.8155C101.507 66.6743 103.057 67.9039 103.963 67.0194Z" fill="#2D2B2C"/>
<path d="M80.2879 65.3324C82.028 65.2576 83.7353 64.8882 85.4826 64.9271C86.8812 64.956 86.8142 63.1827 85.4243 63.1481C83.677 63.1092 81.9697 63.4786 80.2297 63.5552C78.834 63.6152 78.8901 65.38 80.288 65.3342L80.2879 65.3324Z" fill="#2D2B2C"/>
<g opacity="0.26">
<path opacity="0.26" d="M58.7465 87.364C60.3775 90.7992 62.9539 92.1519 64.0704 90.956C65.187 89.76 61.5972 88.0844 61.0099 85.8419C60.459 83.7354 60.1333 80.3073 59.0866 80.1101C57.3404 79.7809 56.9855 83.6552 58.7465 87.364Z" fill="#F08641"/>
<path opacity="0.26" d="M58.4662 108.87C59.1765 109.439 60.0879 108.494 60.6419 107.819C61.1053 107.257 61.6902 106.385 61.1982 105.913C60.7062 105.441 59.9652 106.27 59.423 106.707C58.8807 107.143 57.8872 108.404 58.4662 108.87Z" fill="#F08641"/>
<path opacity="0.26" d="M44.6134 94.3913C44.9557 95.2349 46.211 94.8518 47.0238 94.5331C47.7014 94.2669 48.6371 93.7911 48.4361 93.1387C48.2351 92.4864 47.1821 92.8539 46.4995 92.9671C45.8169 93.0803 44.333 93.7024 44.6134 94.3913Z" fill="#F08641"/>
<path opacity="0.26" d="M43.4642 73.8103C42.9427 74.5557 43.9447 75.3973 44.6531 75.9083C45.2432 76.3342 46.1513 76.8619 46.5894 76.34C47.0275 75.8181 46.1535 75.138 45.6812 74.6174C45.209 74.0968 43.8887 73.2016 43.4642 73.8103Z" fill="#F08641"/>
<path opacity="0.26" d="M55.4663 57.9148C54.7467 58.4726 55.4498 59.5804 55.9741 60.2791C56.411 60.8614 57.1192 61.636 57.6939 61.2681C58.2686 60.9002 57.6361 59.9913 57.3413 59.3528C57.0466 58.7142 56.0541 57.4592 55.4663 57.9148Z" fill="#F08641"/>
</g>
</g>
<defs>
<clipPath id="clip0_26_182">
<rect width="68.6166" height="95.4322" fill="white" transform="translate(35.4136 117.833) rotate(-91.877)"/>
</clipPath>
</defs>
</svg>
